HIERARCHY
ROOT Hips
{
  OFFSET -10.0563 7.73376 -472.55
  CHANNELS 6 Xposition Yposition Zposition Zrotation Xrotation Yrotation
  JOINT Spine
  {
    OFFSET 0 0 0
    CHANNELS 3 Zrotation Xrotation Yrotation
    JOINT Spine1
    {
      OFFSET 19 0 0
      CHANNELS 3 Zrotation Xrotation Yrotation
      JOINT Neck
      {
        OFFSET 22.5 0.6 0
        CHANNELS 3 Zrotation Xrotation Yrotation
        JOINT Head
        {
          OFFSET 14 0.0308777 0
          CHANNELS 3 Zrotation Xrotation Yrotation
          End Site
          {
            OFFSET 17 0 0
          }
        }
      }
      JOINT LeftShoulder
      {
        OFFSET 19.8 3.7 4.3
        CHANNELS 3 Zrotation Xrotation Yrotation
        JOINT LeftArm
        {
          OFFSET 8 0 0
          CHANNELS 3 Zrotation Xrotation Yrotation
          JOINT LeftForeArm
          {
            OFFSET 15.2 0 0
            CHANNELS 3 Zrotation Xrotation Yrotation
            JOINT LeftHand
            {
              OFFSET 17.8 0 0
              CHANNELS 3 Zrotation Xrotation Yrotation
              End Site
              {
                OFFSET 7.2 0 0
              }
            }
          }
        }
      }
      JOINT RightShoulder
      {
        OFFSET 19.8 3.7 -4.3
        CHANNELS 3 Zrotation Xrotation Yrotation
        JOINT RightArm
        {
          OFFSET 8 0 0.151654
          CHANNELS 3 Zrotation Xrotation Yrotation
          JOINT RightForeArm
          {
            OFFSET 15.2 0 0
            CHANNELS 3 Zrotation Xrotation Yrotation
            JOINT RightHand
            {
              OFFSET 17.8 0 0
              CHANNELS 3 Zrotation Xrotation Yrotation
              End Site
              {
                OFFSET 7.2 0 0
              }
            }
          }
        }
      }
    }
  }
  JOINT LeftUpLeg
  {
    OFFSET 5.98425 -7.666 4.78879
    CHANNELS 3 Zrotation Xrotation Yrotation
    JOINT LeftLeg
    {
      OFFSET 16 0 0
      CHANNELS 3 Zrotation Xrotation Yrotation
      JOINT LeftFoot
      {
        OFFSET 18 0 0
        CHANNELS 3 Zrotation Xrotation Yrotation
        End Site
        {
          OFFSET 0 -10.8 0
        }
      }
    }
  }
  JOINT RightUpLeg
  {
    OFFSET 5.98425 -7.66598 -4.78879
    CHANNELS 3 Zrotation Xrotation Yrotation
    JOINT RightLeg
    {
      OFFSET 16 0 0
      CHANNELS 3 Zrotation Xrotation Yrotation
      JOINT RightFoot
      {
        OFFSET 18 0 0
        CHANNELS 3 Zrotation Xrotation Yrotation
        End Site
        {
          OFFSET 0 -10.8 0
        }
      }
    }
  }
  JOINT Tail
  {
    OFFSET 6.83696 -0.722574 0
    CHANNELS 3 Zrotation Xrotation Yrotation
    JOINT Tail1
    {
      OFFSET 12 0 0
      CHANNELS 3 Zrotation Xrotation Yrotation
      End Site
      {
        OFFSET 12 0 0
      }
    }
  }
}
MOTION
Frames:	7
Frame Time:	0.0166667
128.249 6.76364 207.087 -90.2551 30.7404 91.9916 -173.052 -6.54155 -0.739251 -4.14263 -5.60967 -4.65371 -14.6897 15.9466 0.787958 -137.598 56.8561 137.5 -115.622 -38.2142 -147.69 153.882 -28.5828 -163.524 -74.273 2.35513 2.38407 24.8697 -1.35631 -9.32304 74.6482 -26.9463 34.2523 29.7623 -19.9938 -56.2444 -70.6847 -11.5589 -3.51833 -0.805583 2.18104 -11.3997 -145.106 -4.35033 -16.9593 100.58 16.2317 1.37336 45.7576 -1.64509 -4.0533 -123.404 9.93211 -8.68152 91.2411 -1.29331 -4.43193 49.7838 -2.12853 -4.05586 -81.451 -62.3283 -41.4342 6.16256 -20.8736 5.78727 
128.252 6.75693 207.092 -90.2836 30.7551 92.0077 -172.993 -6.55622 -0.650793 -4.25823 -5.59992 -4.80317 -14.6704 15.9378 0.893588 -137.631 56.849 137.528 -115.637 -38.2186 -147.717 153.828 -28.6271 -163.602 -74.3264 2.33581 2.40047 24.9328 -1.35952 -9.29093 74.6091 -27.0218 34.3308 29.6016 -20.1079 -56.1709 -70.776 -11.6875 -3.57605 -0.838472 2.23032 -11.588 -145.042 -4.28616 -17.0196 100.509 16.3315 1.39095 45.7613 -1.65271 -4.06346 -123.401 9.96443 -8.68896 91.1973 -1.30383 -4.4429 49.8758 -2.12282 -4.05148 -81.5168 -62.3448 -41.4816 6.17789 -20.8577 5.77577 
128.259 6.75015 207.09 -90.3309 30.7908 91.9982 -172.97 -6.56361 -0.627894 -4.34798 -5.58819 -4.8862 -14.648 15.936 0.923331 -137.626 56.8244 137.593 -115.641 -38.2235 -147.716 153.773 -28.7629 -163.811 -74.3885 2.48138 2.45265 24.8426 -1.35507 -9.19672 74.5512 -27.0996 34.3475 29.514 -20.1475 -56.1138 -70.8161 -11.6711 -3.6147 -0.777596 2.23654 -11.6667 -145.074 -4.27755 -17.0492 100.515 16.3527 1.39813 45.7259 -1.65476 -4.06594 -123.383 9.96133 -8.70101 91.1163 -1.39501 -4.45279 49.9292 -2.10948 -4.03912 -81.6555 -62.3496 -41.5102 6.16513 -20.9079 5.82461 
128.258 6.74719 207.089 -90.3925 30.8491 91.9837 -172.981 -6.55459 -0.677043 -4.43687 -5.5764 -4.84443 -14.5961 15.9544 0.831156 -137.575 56.7744 137.661 -115.65 -38.2331 -147.717 153.598 -28.7461 -163.88 -74.4733 2.55889 2.48758 24.7083 -1.34794 -9.15167 74.5259 -27.1357 34.361 29.5082 -20.2203 -56.0637 -70.9038 -11.6164 -3.67281 -0.703377 2.24238 -11.7552 -145.2 -4.29987 -17.0513 100.56 16.2382 1.39525 45.737 -1.6459 -4.05482 -123.391 10.0018 -8.70417 91.1316 -1.22894 -4.45363 49.7925 -2.12334 -4.05099 -81.8217 -62.4442 -41.5833 6.14519 -20.8782 5.81147 
128.263 6.74273 207.092 -90.4952 30.8974 91.9728 -172.979 -6.54563 -0.746903 -4.52869 -5.55627 -4.82325 -14.5763 15.9623 0.809353 -137.529 56.675 137.647 -115.654 -38.2293 -147.733 153.479 -28.7371 -163.992 -74.5447 2.4288 2.5228 24.7668 -1.356 -9.18868 74.5483 -27.1128 34.3756 29.4648 -20.2747 -56.0793 -70.9555 -11.5803 -3.68621 -0.647683 2.23559 -11.7746 -145.302 -4.27028 -17.1185 100.601 16.1777 1.39516 45.7608 -1.63899 -4.04626 -123.427 10.0717 -8.74631 91.1769 -1.02039 -4.45503 49.7734 -2.13495 -4.06591 -82.0426 -62.5681 -41.7293 6.13427 -20.8384 5.78522 
128.279 6.72988 207.09 -90.5938 30.9195 91.9494 -172.927 -6.53498 -0.887939 -4.61481 -5.53987 -4.72745 -14.6044 15.9841 0.841331 -137.565 56.6275 137.608 -115.656 -38.2257 -147.746 153.454 -28.7661 -164.08 -74.6081 2.30804 2.52812 24.9518 -1.37442 -9.27902 74.5837 -27.0721 34.3848 29.4882 -20.2558 -56.1665 -70.9719 -11.586 -3.65575 -0.634268 2.22282 -11.759 -145.293 -4.22573 -17.2159 100.55 16.2041 1.41281 45.7527 -1.63719 -4.04275 -123.363 10.1354 -8.81254 91.0914 -0.918009 -4.45646 49.7533 -2.13212 -4.06154 -82.2173 -62.6994 -41.8835 6.13852 -20.7929 5.74963 
128.283 6.72033 207.085 -90.6161 30.9484 91.9086 -172.914 -6.50465 -1.10871 -4.64439 -5.53409 -4.45348 -14.6076 15.9879 0.752343 -137.532 56.6104 137.574 -115.671 -38.2421 -147.747 153.391 -28.5744 -163.776 -74.61 2.47925 2.43042 24.9319 -1.36577 -9.23986 74.624 -27.0264 34.3977 29.6819 -20.2035 -56.249 -71.0223 -11.5533 -3.64106 -0.591736 2.21336 -11.7926 -145.284 -4.22765 -17.2592 100.503 16.2274 1.43225 45.7484 -1.63775 -4.04345 -123.349 10.1408 -8.82988 91.0378 -0.868911 -4.45758 49.7504 -2.131 -4.0606 -82.281 -62.7719 -41.8954 6.13941 -20.7802 5.75018 
